<?xml version="1.0" encoding="UTF-8" standalone="no"?>
<!-- Created with Inkscape (http://www.inkscape.org/) -->

<svg
   width="185.36472mm"
   height="42.311882mm"
   viewBox="0 0 185.36471 42.311882"
   version="1.1"
   id="svg5"
   inkscape:version="1.2 (dc2aedaf03, 2022-05-15)"
   sodipodi:docname="how-lightning1.svg"
   inkscape:export-filename="how-lightning.png"
   inkscape:export-xdpi="72"
   inkscape:export-ydpi="72"
   xmlns:inkscape="http://www.inkscape.org/namespaces/inkscape"
   xmlns:sodipodi="http://sodipodi.sourceforge.net/DTD/sodipodi-0.dtd"
   xmlns="http://www.w3.org/2000/svg"
   xmlns:svg="http://www.w3.org/2000/svg">
  <sodipodi:namedview
     id="namedview7"
     pagecolor="#ffffff"
     bordercolor="#666666"
     borderopacity="1.0"
     inkscape:showpageshadow="2"
     inkscape:pageopacity="0.0"
     inkscape:pagecheckerboard="0"
     inkscape:deskcolor="#d1d1d1"
     inkscape:document-units="mm"
     showgrid="false"
     inkscape:zoom="1.1300912"
     inkscape:cx="461.46718"
     inkscape:cy="382.27003"
     inkscape:window-width="1918"
     inkscape:window-height="1057"
     inkscape:window-x="1920"
     inkscape:window-y="21"
     inkscape:window-maximized="1"
     inkscape:current-layer="layer1"
     showguides="true" />
  <defs
     id="defs2">
    <rect
       x="17.859499"
       y="618.46405"
       width="920.43506"
       height="102.8637"
       id="rect3674" />
    <rect
       x="264.19589"
       y="466.47351"
       width="117.06031"
       height="55.338814"
       id="rect2021" />
    <linearGradient
       id="paint0_linear"
       x1="0"
       y1="0"
       x2="0"
       y2="49"
       gradientUnits="userSpaceOnUse"
       gradientTransform="matrix(0.2028754,0,0,0.22859573,59.225058,126.12748)">
      <stop
         stop-color="#FFE96D"
         id="stop3161" />
      <stop
         offset="1"
         stop-color="#E1C218"
         id="stop3163" />
    </linearGradient>
  </defs>
  <g
     inkscape:label="Ebene 1"
     inkscape:groupmode="layer"
     id="layer1"
     transform="translate(-9.6262143,-19.892361)">
    <g
       id="g1725"
       transform="matrix(0.6175643,0,0,0.6175643,73.103257,-45.880375)">
      <path
         d="m 68.929669,128.36643 c -0.206917,11.86397 -9.992979,21.31448 -21.858456,21.10719 -11.860697,-0.20762 -21.311341,-9.9944 -21.102946,-21.85804 0.205339,-11.865 9.991227,-21.31614 21.853257,-21.10877 11.864658,0.20679 21.314941,9.99495 21.108145,21.85962 z"
         fill="#f7931a"
         id="path2"
         style="stroke-width:0.671609" />
      <path
         d="m 55.989231,122.87589 c -0.226433,-2.88267 -2.693815,-3.89076 -5.825447,-4.2203 l 0.06959,-3.99179 -2.429769,-0.0419 -0.06768,3.88657 c -0.638771,-0.0125 -1.29191,-0.008 -1.94083,-0.008 l 0.06864,-3.91232 -2.428473,-0.0423 -0.07055,3.99063 c -0.526245,0.002 -1.043013,0.002 -1.546771,-0.004 l 0.0027,-0.0125 -3.351239,-0.0598 -0.04464,2.59507 c 0,0 1.794876,-0.003 1.764476,0.0291 0.984193,0.0166 1.294535,0.59443 1.379103,1.08911 l -0.07915,4.54747 c 0.06785,0.001 0.156464,0.004 0.256538,0.0208 -0.08093,-0.001 -0.167551,-0.003 -0.256663,-0.004 l -0.111825,6.37056 c -0.04854,0.30895 -0.239306,0.79968 -0.926927,0.78889 0.03073,0.0291 -1.766257,-0.0332 -1.766257,-0.0332 l -0.533415,2.89334 3.162003,0.0552 c 0.588423,0.0125 1.167212,0.0291 1.735546,0.0444 l -0.06943,4.03726 2.427157,0.0428 0.06964,-3.99457 c 0.666194,0.0249 1.311053,0.0419 1.940693,0.0523 l -0.07047,3.97613 2.429761,0.0424 0.07113,-4.03008 c 4.089038,-0.16319 6.966076,-1.1423 7.38806,-4.97214 0.340543,-3.08386 -1.08839,-4.48747 -3.397514,-5.0848 1.421255,-0.69271 2.324077,-1.94127 2.154852,-4.05067 z m -3.550058,8.57324 c -0.05132,3.01708 -5.211333,2.58373 -6.858079,2.55658 l 0.09397,-5.34911 c 1.647198,0.0291 6.819212,-0.3542 6.764092,2.79253 z m -0.998311,-7.5666 c -0.04871,2.7449 -4.351444,2.34937 -5.723086,2.32554 l 0.08479,-4.85139 c 1.371646,0.0249 5.687948,-0.33718 5.638276,2.52585 z"
         fill="#ffffff"
         id="path4"
         style="stroke-width:0.671609" />
    </g>
    <path
       d="m 30.617683,53.646081 c -0.08113,-1.03278 -0.965126,-1.39395 -2.08711,-1.51203 l 0.02493,-1.43015 -0.870525,-0.015 -0.02425,1.39246 c -0.228855,-0.005 -0.462858,-0.003 -0.69535,-0.003 l 0.02459,-1.40168 -0.87006,-0.0152 -0.02527,1.42974 c -0.18854,7.1e-4 -0.373685,7.1e-4 -0.554168,-0.002 l 9.85e-4,-0.005 -1.200663,-0.0214 -0.01599,0.92974 c 0,0 0.643058,-7.5e-4 0.632167,0.0104 0.352611,0.006 0.463798,0.21297 0.494097,0.39021 l -0.02836,1.62924 c 0.02431,3.6e-4 0.05606,0.002 0.09191,0.008 -0.029,-3.6e-4 -0.06002,-7.6e-4 -0.09195,-0.002 l -0.04006,2.28241 c -0.01739,0.11069 -0.08574,0.2865 -0.332094,0.28264 0.01101,0.0104 -0.632805,-0.0119 -0.632805,-0.0119 l -0.191108,1.0366 1.132865,0.0198 c 0.210817,0.005 0.418182,0.0104 0.621801,0.0159 l -0.02487,1.44645 0.869588,0.0153 0.02495,-1.43115 c 0.23868,0.009 0.469716,0.015 0.695301,0.0187 l -0.02525,1.42454 0.870521,0.0152 0.02549,-1.44387 c 1.464999,-0.0585 2.495766,-0.40926 2.646954,-1.7814 0.122007,-1.10487 -0.389943,-1.60774 -1.217245,-1.82175 0.509202,-0.24818 0.832659,-0.69551 0.772032,-1.45125 z m -1.271895,3.07157 c -0.01838,1.08095 -1.867088,0.92569 -2.457075,0.91596 l 0.03367,-1.91645 c 0.59015,0.0104 2.443149,-0.1269 2.423401,1.00049 z m -0.35767,-2.71091 c -0.01745,0.98343 -1.559011,0.84172 -2.050435,0.83318 l 0.03038,-1.73814 c 0.491425,0.009 2.037846,-0.1208 2.020051,0.90496 z"
       fill="#ffffff"
       id="path4-5"
       style="fill:#f7931a;fill-opacity:1;stroke-width:0.240621" />
    <text
       xml:space="preserve"
       transform="scale(0.26458333)"
       id="text2019"
       style="font-size:40px;line-height:1.25;font-family:Ari;-inkscape-font-specification:Ari;letter-spacing:0px;word-spacing:0px;white-space:pre;shape-inside:url(#rect2021);display:inline" />
    <text
       xml:space="preserve"
       style="font-size:10.5833px;line-height:1.25;font-family:Ari;-inkscape-font-specification:Ari;letter-spacing:0px;word-spacing:0px;fill:#cccccc;stroke-width:0.264583"
       x="9.1076326"
       y="59.422127"
       id="text2027"><tspan
         sodipodi:role="line"
         id="tspan2025"
         style="fill:#cccccc;stroke-width:0.264583"
         x="9.1076326"
         y="59.422127">0.1</tspan></text>
    <path
       d="m 194.52696,54.786301 c -0.0811,-1.03278 -0.96513,-1.39395 -2.08711,-1.51203 l 0.0249,-1.43015 -0.87053,-0.015 -0.0243,1.39246 c -0.22885,-0.005 -0.46286,-0.003 -0.69536,-0.003 l 0.0246,-1.40168 -0.87006,-0.0152 -0.0253,1.42974 c -0.18854,7.1e-4 -0.37368,7.1e-4 -0.55417,-0.002 l 9.9e-4,-0.005 -1.20066,-0.0214 -0.016,0.92974 c 0,0 0.64305,-7.5e-4 0.63216,0.0104 0.35261,0.006 0.4638,0.21297 0.4941,0.39021 l -0.0284,1.62924 c 0.0243,3.6e-4 0.0561,0.002 0.0919,0.008 -0.029,-3.6e-4 -0.06,-7.6e-4 -0.0919,-0.002 l -0.0401,2.28241 c -0.0174,0.11069 -0.0857,0.2865 -0.33209,0.28264 0.011,0.0104 -0.63281,-0.0119 -0.63281,-0.0119 l -0.19111,1.0366 1.13287,0.0198 c 0.21082,0.005 0.41818,0.0104 0.6218,0.0159 l -0.0249,1.44645 0.86958,0.0153 0.025,-1.43115 c 0.23868,0.009 0.46971,0.015 0.6953,0.0187 l -0.0253,1.42454 0.87052,0.0152 0.0255,-1.44387 c 1.465,-0.0585 2.49577,-0.40926 2.64695,-1.7814 0.12201,-1.10487 -0.38994,-1.60774 -1.21724,-1.82175 0.5092,-0.24818 0.83266,-0.69551 0.77203,-1.45125 z m -1.2719,3.07157 c -0.0184,1.08095 -1.86709,0.92569 -2.45707,0.91596 l 0.0337,-1.91645 c 0.59015,0.0104 2.44315,-0.1269 2.4234,1.00049 z m -0.35767,-2.71091 c -0.0175,0.98343 -1.55901,0.84172 -2.05043,0.83318 l 0.0304,-1.73814 c 0.49142,0.009 2.03784,-0.1208 2.02005,0.90496 z"
       fill="#ffffff"
       id="path4-5-6"
       style="fill:#f7931a;fill-opacity:1;stroke-width:0.240621" />
    <text
       xml:space="preserve"
       style="font-size:10.5833px;line-height:1.25;font-family:Ari;-inkscape-font-specification:Ari;letter-spacing:0px;word-spacing:0px;fill:#cccccc;stroke-width:0.264583"
       x="173.01692"
       y="60.562355"
       id="text2027-3"><tspan
         sodipodi:role="line"
         id="tspan2025-9"
         style="fill:#cccccc;stroke-width:0.264583"
         x="173.01692"
         y="60.562355">0.0</tspan></text>
    <path
       style="fill:#008000;stroke-width:0.0176835"
       d="m 40.506722,59.919431 c -0.553835,-0.0331 -1.313315,-0.31098 -1.868393,-0.68379 -0.98284,-0.66012 -1.642578,-1.62693 -1.886419,-2.76446 -0.09599,-0.44781 -0.09599,-1.28518 0,-1.73298 0.358561,-1.67268 1.60179,-2.95818 3.265574,-3.37661 0.340259,-0.0856 0.476998,-0.0982 1.037425,-0.0962 0.43746,0.002 0.542703,0.007 0.71618,0.0388 0.392334,0.0712 0.767061,0.19927 1.237844,0.42317 l 0.221047,0.10513 3.560005,-3.55159 c 1.958007,-1.95339 3.58728,-3.5724 3.620609,-3.59783 l 0.06062,-0.0462 0.287453,0.27907 c 0.158093,0.15349 0.953892,0.93622 1.768442,1.7394 l 1.480996,1.46033 -0.64543,0.64544 -0.645436,0.64544 -0.906403,-0.90628 -0.906396,-0.90627 -0.406531,0.40682 -0.406537,0.40682 0.736427,0.73642 0.736421,0.73642 -0.851449,0.85332 -0.851455,0.85333 -0.738316,-0.73653 -0.738322,-0.73655 -1.741784,1.74179 -1.741791,1.74179 0.08764,0.19639 c 0.172776,0.3872 0.296517,0.825 0.356844,1.26248 0.03305,0.23963 0.02825,0.89453 -0.0084,1.13714 -0.192893,1.27907 -0.857695,2.33223 -1.916708,3.03636 -0.494992,0.32912 -1.095499,0.57484 -1.61403,0.66043 -0.20445,0.0337 -0.943504,0.0502 -1.299733,0.029 z m 0.999117,-2.44078 c 0.725073,-0.1935 1.299863,-0.8052 1.423654,-1.51507 0.03366,-0.19288 0.03385,-0.52393 4e-4,-0.71466 -0.112253,-0.64099 -0.582242,-1.2172 -1.181696,-1.44878 -0.293404,-0.11335 -0.640814,-0.16707 -0.896975,-0.1387 -0.82572,0.0914 -1.50707,0.68149 -1.716479,1.48646 -0.04812,0.18507 -0.06433,0.52009 -0.03502,0.72456 0.02418,0.16875 0.115957,0.45891 0.193078,0.6106 0.245391,0.48264 0.725288,0.86086 1.262644,0.99511 0.300148,0.075 0.670445,0.0752 0.950347,4.7e-4 z"
       id="path2528" />
    <path
       style="fill:#008000;stroke-width:0.0176835"
       d="m 156.7712,62.194784 c -0.55383,-0.0331 -1.31331,-0.31098 -1.86839,-0.68379 -0.98284,-0.66012 -1.64258,-1.62693 -1.88642,-2.76446 -0.096,-0.44781 -0.096,-1.28518 0,-1.73298 0.35856,-1.67268 1.60179,-2.95818 3.26558,-3.37661 0.34025,-0.0856 0.47699,-0.0982 1.03742,-0.0962 0.43746,0.002 0.5427,0.007 0.71618,0.0388 0.39233,0.0712 0.76706,0.19927 1.23784,0.42317 l 0.22105,0.10513 3.56001,-3.55159 c 1.958,-1.95339 3.58728,-3.57241 3.62061,-3.59783 l 0.0606,-0.0462 0.28745,0.27907 c 0.15809,0.15349 0.95389,0.93622 1.76844,1.7394 l 1.481,1.46033 -0.64543,0.64544 -0.64544,0.64544 -0.9064,-0.90628 -0.9064,-0.90627 -0.40653,0.40682 -0.40654,0.40681 0.73643,0.73643 0.73642,0.73642 -0.85145,0.85332 -0.85145,0.85333 -0.73832,-0.73653 -0.73832,-0.73655 -1.74178,1.74179 -1.7418,1.74179 0.0876,0.19639 c 0.17278,0.3872 0.29652,0.825 0.35685,1.26248 0.0331,0.23963 0.0282,0.89453 -0.008,1.13714 -0.19289,1.27907 -0.8577,2.33223 -1.91671,3.03636 -0.49499,0.32912 -1.0955,0.57484 -1.61403,0.66043 -0.20445,0.0337 -0.9435,0.0502 -1.29973,0.029 z m 0.99912,-2.44078 c 0.72507,-0.1935 1.29986,-0.8052 1.42365,-1.51507 0.0337,-0.19288 0.0339,-0.52393 4e-4,-0.71466 -0.11225,-0.64099 -0.58224,-1.2172 -1.18169,-1.44878 -0.29341,-0.11335 -0.64082,-0.16707 -0.89698,-0.1387 -0.82572,0.0914 -1.50707,0.68149 -1.71648,1.48646 -0.0481,0.18507 -0.0643,0.52009 -0.035,0.72456 0.0242,0.16875 0.11596,0.45891 0.19308,0.6106 0.24539,0.48264 0.72529,0.86086 1.26265,0.99511 0.30014,0.075 0.67044,0.0752 0.95034,4.7e-4 z"
       id="path2528-1" />
    <rect
       style="fill:#008000;fill-opacity:1;stroke:#3c0080;stroke-width:0;stroke-linecap:square;stroke-linejoin:round;stroke-dasharray:none;stroke-opacity:1;paint-order:stroke fill markers"
       id="rect3059"
       width="95.554764"
       height="2.9845231"
       x="52.11977"
       y="54.205421" />
    <rect
       style="fill:#008000;fill-opacity:1;stroke:#3c0080;stroke-width:0;stroke-linecap:square;stroke-linejoin:round;stroke-dasharray:none;stroke-opacity:1;paint-order:stroke fill markers"
       id="rect3617"
       width="2.1467998"
       height="9.8362494"
       x="100.78506"
       y="47.3955" />
    <text
       xml:space="preserve"
       transform="scale(0.26458333)"
       id="text3672"
       style="font-size:40px;line-height:1.25;font-family:Ari;-inkscape-font-specification:Ari;letter-spacing:0px;word-spacing:0px;white-space:pre;shape-inside:url(#rect3674);display:inline" />
  </g>
</svg>
